<svg xmlns="http://www.w3.org/2000/svg" xmlns:xlink="http://www.w3.org/1999/xlink" width="500" zoomAndPan="magnify" viewBox="0 0 375 374.999991" height="500" preserveAspectRatio="xMidYMid meet" version="1.0"><defs><clipPath id="fd5910eabd"><path d="M 54.851562 54.855469 L 320.144531 54.855469 L 320.144531 320.148438 L 54.851562 320.148438 Z M 54.851562 54.855469 " clip-rule="nonzero"/></clipPath><clipPath id="5a4424ca26"><path d="M 187.5 -77.792969 L 452.792969 187.5 L 187.5 452.792969 L -77.796875 187.5 Z M 187.5 -77.792969 " clip-rule="nonzero"/></clipPath><clipPath id="6d2c839e82"><path d="M 0.441406 0 L 375 0 L 375 374.558594 L 0.441406 374.558594 Z M 0.441406 0 " clip-rule="nonzero"/></clipPath><clipPath id="7ad9dd2ed5"><path d="M 188.03125 -0.621094 L 375.621094 186.96875 L 188.03125 374.558594 L 0.441406 186.96875 Z M 188.03125 -0.621094 " clip-rule="nonzero"/></clipPath><clipPath id="e9c458f371"><path d="M 95.089844 123.855469 L 148.53125 123.855469 L 148.53125 186.125 L 95.089844 186.125 Z M 95.089844 123.855469 " clip-rule="nonzero"/></clipPath><clipPath id="f9dced5b19"><path d="M 153.128906 123.855469 L 215.402344 123.855469 L 215.402344 186.125 L 153.128906 186.125 Z M 153.128906 123.855469 " clip-rule="nonzero"/></clipPath><clipPath id="df990dd598"><path d="M 219.953125 123.855469 L 280.832031 123.855469 L 280.832031 186.125 L 219.953125 186.125 Z M 219.953125 123.855469 " clip-rule="nonzero"/></clipPath><clipPath id="b6abc4e119"><path d="M 95.089844 189.21875 L 280.972656 189.21875 L 280.972656 266.359375 L 95.089844 266.359375 Z M 95.089844 189.21875 " clip-rule="nonzero"/></clipPath><clipPath id="cd9899c517"><path d="M 245.488281 107.492188 L 255.4375 107.492188 L 255.4375 117.441406 L 245.488281 117.441406 Z M 245.488281 107.492188 " clip-rule="nonzero"/></clipPath><clipPath id="45f5ee8a14"><path d="M 250.464844 107.492188 C 247.714844 107.492188 245.488281 109.71875 245.488281 112.464844 C 245.488281 115.214844 247.714844 117.441406 250.464844 117.441406 C 253.210938 117.441406 255.4375 115.214844 255.4375 112.464844 C 255.4375 109.71875 253.210938 107.492188 250.464844 107.492188 Z M 250.464844 107.492188 " clip-rule="nonzero"/></clipPath></defs><g clip-path="url(#fd5910eabd)"><g clip-path="url(#5a4424ca26)"><path fill="#000000" d="M 187.5 -77.792969 L 452.792969 187.5 L 187.5 452.792969 L -77.796875 187.5 Z M 187.5 -77.792969 " fill-opacity="1" fill-rule="nonzero"/></g></g><g clip-path="url(#6d2c839e82)"><g clip-path="url(#7ad9dd2ed5)"><path fill="#002960" d="M 0.441406 -0.621094 L 375.621094 -0.621094 L 375.621094 374.558594 L 0.441406 374.558594 Z M 0.441406 -0.621094 " fill-opacity="1" fill-rule="nonzero"/></g></g><g clip-path="url(#e9c458f371)"><path fill="#ffffff" d="M 114.597656 186.015625 C 103.84375 186.003906 95.089844 177.246094 95.089844 166.492188 L 95.085938 165.398438 L 111.027344 165.398438 L 111.027344 166.5625 C 111.058594 168.496094 112.640625 170.058594 114.582031 170.058594 L 127.097656 170.058594 C 129.042969 170.058594 130.625 168.308594 130.652344 166.375 L 130.652344 166.308594 C 130.648438 164.359375 129.054688 162.585938 127.097656 162.585938 L 126.984375 162.582031 L 114.597656 162.574219 C 103.84375 162.5625 95.089844 154.167969 95.089844 143.414062 L 95.085938 142.140625 L 111.027344 142.140625 L 111.027344 143.484375 C 111.058594 145.417969 112.640625 146.984375 114.582031 146.984375 L 126.671875 146.984375 L 127.089844 146.972656 C 137.839844 146.984375 146.589844 155.558594 146.59375 166.308594 C 146.59375 171.53125 144.5625 176.617188 140.875 180.304688 C 137.183594 183.996094 132.28125 186.023438 127.066406 186.023438 C 127.0625 186.023438 114.597656 186.015625 114.597656 186.015625 Z M 111.523438 139.816406 L 100.792969 123.878906 L 137.878906 123.878906 L 148.488281 139.816406 Z M 111.523438 139.816406 " fill-opacity="1" fill-rule="nonzero"/></g><g clip-path="url(#f9dced5b19)"><path fill="#38b6ff" d="M 177.996094 136.289062 C 169.707031 136.289062 165.5625 140.433594 165.5625 148.71875 L 165.5625 161.152344 C 165.5625 169.441406 169.707031 173.585938 177.996094 173.585938 L 215.289062 173.585938 L 215.289062 186.015625 L 177.996094 186.015625 C 161.417969 186.015625 153.128906 177.730469 153.128906 161.152344 L 153.128906 148.71875 C 153.128906 132.144531 161.417969 123.855469 177.996094 123.855469 L 215.289062 123.855469 L 202.859375 136.289062 Z M 177.996094 136.289062 " fill-opacity="1" fill-rule="evenodd"/></g><g clip-path="url(#df990dd598)"><path fill="#ffffff" d="M 257.746094 123.855469 L 243.296875 123.855469 L 250.339844 144.167969 L 250.347656 144.140625 L 256.425781 161.695312 L 229.058594 161.695312 L 219.964844 186.039062 L 235.855469 186.039062 L 239.753906 175.011719 L 260.785156 175.011719 L 264.757812 186.039062 L 280.957031 186.039062 L 257.746094 123.855469 " fill-opacity="1" fill-rule="nonzero"/></g><path fill="#38b6ff" d="M 243.070312 254.039062 L 205.898438 254.039062 L 205.898438 244.46875 C 205.898438 241.269531 208.492188 238.679688 211.6875 238.679688 L 248.863281 238.679688 L 248.863281 248.246094 C 248.863281 251.445312 246.269531 254.039062 243.070312 254.039062 " fill-opacity="1" fill-rule="nonzero"/><path fill="#38b6ff" d="M 254.816406 229.925781 L 217.890625 229.925781 C 217.890625 221.445312 223.074219 214.566406 229.46875 214.566406 L 266.398438 214.566406 C 266.398438 223.050781 261.210938 229.925781 254.816406 229.925781 " fill-opacity="1" fill-rule="nonzero"/><path fill="#38b6ff" d="M 131.9375 254.039062 L 169.109375 254.039062 L 169.109375 244.46875 C 169.109375 241.269531 166.515625 238.679688 163.316406 238.679688 L 126.144531 238.679688 L 126.144531 248.246094 C 126.144531 251.445312 128.738281 254.039062 131.9375 254.039062 " fill-opacity="1" fill-rule="nonzero"/><path fill="#38b6ff" d="M 120.191406 229.925781 L 157.117188 229.925781 C 157.117188 221.445312 151.933594 214.566406 145.539062 214.566406 L 108.609375 214.566406 C 108.609375 223.050781 113.796875 229.925781 120.191406 229.925781 " fill-opacity="1" fill-rule="nonzero"/><g clip-path="url(#b6abc4e119)"><path fill="#38b6ff" d="M 280.839844 189.226562 C 280.839844 197.707031 273.960938 204.585938 265.476562 204.585938 L 224.800781 204.585938 C 221.152344 204.585938 217.835938 206.707031 216.304688 210.015625 L 191.050781 264.503906 C 190.5 265.691406 189.308594 266.453125 188 266.453125 C 186.691406 266.453125 185.503906 265.691406 184.953125 264.503906 L 159.738281 210.015625 C 158.207031 206.707031 154.890625 204.585938 151.242188 204.585938 L 110.566406 204.585938 C 106.324219 204.585938 102.484375 202.867188 99.703125 200.085938 C 96.921875 197.308594 95.203125 193.46875 95.203125 189.226562 L 159.121094 189.226562 C 163.953125 189.226562 168.34375 192.035156 170.371094 196.421875 L 188.019531 234.574219 L 205.667969 196.421875 C 207.699219 192.035156 212.089844 189.226562 216.925781 189.226562 L 280.839844 189.226562 " fill-opacity="1" fill-rule="nonzero"/></g><g clip-path="url(#cd9899c517)"><g clip-path="url(#45f5ee8a14)"><path fill="#ffffff" d="M 245.488281 107.492188 L 255.4375 107.492188 L 255.4375 117.441406 L 245.488281 117.441406 Z M 245.488281 107.492188 " fill-opacity="1" fill-rule="nonzero"/></g></g></svg>